<svg xmlns="http://www.w3.org/2000/svg" width="768" height="1024" viewBox="0 0 768 1024">
  <defs>
    <linearGradient id="bg" x1="0%" y1="0%" x2="100%" y2="100%">
      <stop offset="0%" stop-color="#581c87" />
      <stop offset="100%" stop-color="#1d4ed8" />
    </linearGradient>
    <filter id="blur"><feGaussianBlur stdDeviation="10"/></filter>
  </defs>
  <rect width="768" height="1024" fill="url(#bg)"/>
  <ellipse cx="567" cy="597" rx="166" ry="74" fill="#fde68a" opacity="0.176" /><ellipse cx="511" cy="243" rx="135" ry="91" fill="#fde68a" opacity="0.123" /><ellipse cx="625" cy="714" rx="116" ry="55" fill="#fde68a" opacity="0.061" /><ellipse cx="120" cy="302" rx="154" ry="72" fill="#fde68a" opacity="0.157" /><ellipse cx="676" cy="185" rx="74" ry="86" fill="#fde68a" opacity="0.165" /><ellipse cx="200" cy="792" rx="157" ry="137" fill="#fde68a" opacity="0.103" /><ellipse cx="515" cy="804" rx="130" ry="61" fill="#fde68a" opacity="0.146" /><ellipse cx="311" cy="442" rx="141" ry="68" fill="#fde68a" opacity="0.097" /><ellipse cx="644" cy="117" rx="97" ry="73" fill="#fde68a" opacity="0.158" />
  <circle cx="574" cy="520" r="2.70" fill="#ffffff" opacity="0.853" /><circle cx="305" cy="536" r="1.82" fill="#ffffff" opacity="0.871" /><circle cx="285" cy="545" r="3.52" fill="#ffffff" opacity="0.891" /><circle cx="87" cy="792" r="2.01" fill="#ffffff" opacity="0.453" /><circle cx="428" cy="550" r="3.24" fill="#ffffff" opacity="0.510" /><circle cx="677" cy="149" r="2.42" fill="#ffffff" opacity="0.848" /><circle cx="21" cy="341" r="1.37" fill="#ffffff" opacity="0.461" /><circle cx="230" cy="659" r="2.00" fill="#ffffff" opacity="0.505" /><circle cx="112" cy="686" r="2.90" fill="#ffffff" opacity="0.593" /><circle cx="477" cy="365" r="1.33" fill="#ffffff" opacity="0.816" /><circle cx="530" cy="722" r="3.51" fill="#ffffff" opacity="0.488" /><circle cx="493" cy="610" r="2.31" fill="#ffffff" opacity="0.763" /><circle cx="539" cy="492" r="2.23" fill="#ffffff" opacity="0.871" /><circle cx="202" cy="247" r="1.61" fill="#ffffff" opacity="0.853" /><circle cx="443" cy="501" r="2.38" fill="#ffffff" opacity="0.815" /><circle cx="450" cy="41" r="3.28" fill="#ffffff" opacity="0.825" /><circle cx="497" cy="327" r="0.82" fill="#ffffff" opacity="0.710" /><circle cx="387" cy="43" r="2.82" fill="#ffffff" opacity="0.645" /><circle cx="44" cy="329" r="1.82" fill="#ffffff" opacity="0.527" /><circle cx="192" cy="70" r="1.47" fill="#ffffff" opacity="0.782" /><circle cx="540" cy="389" r="2.43" fill="#ffffff" opacity="0.855" /><circle cx="371" cy="241" r="3.27" fill="#ffffff" opacity="0.762" />
  <circle cx="384" cy="430" r="131" fill="#fde68a" opacity="0.22" filter="url(#blur)"/>
  <path d="M120 860 C240 760 360 790 500 730 C590 690 660 700 760 660 L760 1024 L120 1024 Z" fill="#ffffff" opacity="0.08"/>
</svg>