<svg xmlns="http://www.w3.org/2000/svg" width="768" height="1024" viewBox="0 0 768 1024">
  <defs>
    <linearGradient id="bg" x1="0%" y1="0%" x2="100%" y2="100%">
      <stop offset="0%" stop-color="#164e63" />
      <stop offset="100%" stop-color="#3730a3" />
    </linearGradient>
    <filter id="blur"><feGaussianBlur stdDeviation="10"/></filter>
  </defs>
  <rect width="768" height="1024" fill="url(#bg)"/>
  <ellipse cx="144" cy="851" rx="176" ry="115" fill="#e0e7ff" opacity="0.098" /><ellipse cx="160" cy="880" rx="181" ry="74" fill="#e0e7ff" opacity="0.112" /><ellipse cx="256" cy="416" rx="72" ry="94" fill="#e0e7ff" opacity="0.088" /><ellipse cx="422" cy="771" rx="103" ry="65" fill="#e0e7ff" opacity="0.073" /><ellipse cx="606" cy="198" rx="115" ry="144" fill="#e0e7ff" opacity="0.097" /><ellipse cx="632" cy="486" rx="173" ry="94" fill="#e0e7ff" opacity="0.186" /><ellipse cx="596" cy="509" rx="75" ry="95" fill="#e0e7ff" opacity="0.156" /><ellipse cx="400" cy="212" rx="116" ry="63" fill="#e0e7ff" opacity="0.118" /><ellipse cx="589" cy="594" rx="108" ry="59" fill="#e0e7ff" opacity="0.192" />
  <circle cx="394" cy="748" r="2.84" fill="#ffffff" opacity="0.766" /><circle cx="194" cy="730" r="3.15" fill="#ffffff" opacity="0.528" /><circle cx="531" cy="965" r="3.23" fill="#ffffff" opacity="0.649" /><circle cx="592" cy="969" r="0.87" fill="#ffffff" opacity="0.896" /><circle cx="323" cy="15" r="3.01" fill="#ffffff" opacity="0.566" /><circle cx="481" cy="543" r="3.21" fill="#ffffff" opacity="0.816" /><circle cx="728" cy="169" r="1.05" fill="#ffffff" opacity="0.471" /><circle cx="577" cy="129" r="0.89" fill="#ffffff" opacity="0.876" /><circle cx="153" cy="580" r="1.25" fill="#ffffff" opacity="0.489" /><circle cx="68" cy="975" r="3.21" fill="#ffffff" opacity="0.545" /><circle cx="674" cy="748" r="2.79" fill="#ffffff" opacity="0.721" /><circle cx="379" cy="800" r="2.85" fill="#ffffff" opacity="0.880" /><circle cx="204" cy="508" r="2.40" fill="#ffffff" opacity="0.593" /><circle cx="28" cy="393" r="3.06" fill="#ffffff" opacity="0.754" /><circle cx="637" cy="583" r="3.15" fill="#ffffff" opacity="0.731" /><circle cx="314" cy="662" r="1.00" fill="#ffffff" opacity="0.632" /><circle cx="473" cy="673" r="1.70" fill="#ffffff" opacity="0.870" /><circle cx="623" cy="240" r="2.72" fill="#ffffff" opacity="0.862" /><circle cx="490" cy="139" r="1.62" fill="#ffffff" opacity="0.789" /><circle cx="185" cy="760" r="2.65" fill="#ffffff" opacity="0.507" /><circle cx="494" cy="264" r="2.43" fill="#ffffff" opacity="0.784" /><circle cx="428" cy="543" r="3.09" fill="#ffffff" opacity="0.704" />
  <circle cx="384" cy="430" r="154" fill="#e0e7ff" opacity="0.22" filter="url(#blur)"/>
  <path d="M120 860 C240 760 360 790 500 730 C590 690 660 700 760 660 L760 1024 L120 1024 Z" fill="#ffffff" opacity="0.08"/>
</svg>